<svg width="48" height="48" viewBox="0 0 48 48" fill="none" xmlns="http://www.w3.org/2000/svg">
<path fill-rule="evenodd" clip-rule="evenodd" d="M14.5618 12.4378C14.7014 12.5771 14.8123 12.7427 14.8879 12.9249C14.9635 13.1071 15.0024 13.3025 15.0024 13.4998C15.0024 13.6971 14.9635 13.8925 14.8879 14.0747C14.8123 14.2569 14.7014 14.4225 14.5618 14.5618L5.12075 23.9998L14.5618 33.4378C14.8434 33.7195 15.0016 34.1015 15.0016 34.4998C15.0016 34.8981 14.8434 35.2801 14.5618 35.5618C14.2801 35.8435 13.8981 36.0017 13.4998 36.0017C13.1014 36.0017 12.7194 35.8435 12.4378 35.5618L1.93775 25.0618C1.79806 24.9225 1.68723 24.7569 1.61161 24.5747C1.53599 24.3925 1.49707 24.1971 1.49707 23.9998C1.49707 23.8025 1.53599 23.6071 1.61161 23.4249C1.68723 23.2427 1.79806 23.0771 1.93775 22.9378L12.4378 12.4378C12.5771 12.2981 12.7426 12.1873 12.9249 12.1117C13.1071 12.0361 13.3025 11.9971 13.4998 11.9971C13.6971 11.9971 13.8924 12.0361 14.0747 12.1117C14.2569 12.1873 14.4224 12.2981 14.5618 12.4378V12.4378ZM33.4378 12.4378C33.2981 12.5771 33.1872 12.7427 33.1116 12.9249C33.036 13.1071 32.9971 13.3025 32.9971 13.4998C32.9971 13.6971 33.036 13.8925 33.1116 14.0747C33.1872 14.2569 33.2981 14.4225 33.4378 14.5618L42.8788 23.9998L33.4378 33.4378C33.2983 33.5773 33.1877 33.7428 33.1122 33.9251C33.0367 34.1073 32.9979 34.3026 32.9979 34.4998C32.9979 34.697 33.0367 34.8923 33.1122 35.0746C33.1877 35.2568 33.2983 35.4223 33.4378 35.5618C33.5772 35.7013 33.7428 35.8119 33.925 35.8874C34.1072 35.9629 34.3025 36.0017 34.4998 36.0017C34.697 36.0017 34.8923 35.9629 35.0745 35.8874C35.2567 35.8119 35.4223 35.7013 35.5618 35.5618L46.0618 25.0618C46.2014 24.9225 46.3123 24.7569 46.3879 24.5747C46.4635 24.3925 46.5024 24.1971 46.5024 23.9998C46.5024 23.8025 46.4635 23.6071 46.3879 23.4249C46.3123 23.2427 46.2014 23.0771 46.0618 22.9378L35.5618 12.4378C35.4224 12.2981 35.2569 12.1873 35.0747 12.1117C34.8924 12.0361 34.6971 11.9971 34.4998 11.9971C34.3025 11.9971 34.1071 12.0361 33.9249 12.1117C33.7426 12.1873 33.5771 12.2981 33.4378 12.4378V12.4378ZM30.4408 3.06581C30.8206 3.18333 31.1382 3.44683 31.3238 3.79841C31.5095 4.14999 31.5479 4.56089 31.4308 4.94081L19.4308 43.9408C19.3023 44.3065 19.0372 44.6083 18.6911 44.7829C18.345 44.9574 17.9447 44.9912 17.5742 44.8772C17.2037 44.7631 16.8918 44.5101 16.7038 44.1711C16.5158 43.8321 16.4663 43.4335 16.5658 43.0588L28.5658 4.05881C28.6833 3.679 28.9468 3.36138 29.2984 3.17574C29.6499 2.99011 30.0608 2.95165 30.4408 3.06881V3.06581Z" fill="#6610F2"/>
</svg>
