<svg width="151" height="22" viewBox="0 0 151 22" fill="none" xmlns="http://www.w3.org/2000/svg">
<path d="M4.0752 11.9893L11.8193 14.6045V18.502L0.583984 13.9316V11.0371L4.0752 11.9893ZM11.8193 9.86914L4.0625 12.5352L0.583984 13.4492V10.5547L11.8193 5.98438V9.86914ZM146.796 12.4971L139.077 9.88184V5.99707L150.249 10.5674V13.4746L146.796 12.4971ZM139.077 14.6299L146.796 11.9512L150.249 11.0498V13.9443L139.077 18.5146V14.6299Z" fill="#131313" fill-opacity="0.5"/>
<path d="M30.126 1.51562V20H25.6826L19.1445 8.49805V20H14.6885V1.51562H19.1445L25.6826 13.0176V1.51562H30.126ZM39.3936 20.2539C38.2764 20.2539 37.2777 20.0804 36.3975 19.7334C35.5173 19.3779 34.7725 18.8913 34.1631 18.2734C33.5622 17.6556 33.1009 16.9447 32.7793 16.1406C32.4661 15.3366 32.3096 14.486 32.3096 13.5889V13.1064C32.3096 12.0993 32.4492 11.1683 32.7285 10.3135C33.0078 9.4502 33.4225 8.69694 33.9727 8.05371C34.5228 7.41048 35.2126 6.91113 36.042 6.55566C36.8714 6.19173 37.8363 6.00977 38.9365 6.00977C39.9098 6.00977 40.7816 6.16634 41.5518 6.47949C42.3219 6.79264 42.9736 7.24121 43.5068 7.8252C44.0485 8.40918 44.459 9.11589 44.7383 9.94531C45.026 10.7747 45.1699 11.7057 45.1699 12.7383V14.4775H33.9473V11.7988H40.9932V11.4688C41.0016 11.0117 40.9212 10.6224 40.752 10.3008C40.5911 9.97917 40.3542 9.73372 40.041 9.56445C39.7279 9.39518 39.347 9.31055 38.8984 9.31055C38.4329 9.31055 38.0479 9.41211 37.7432 9.61523C37.4469 9.81836 37.2142 10.0977 37.0449 10.4531C36.8841 10.8001 36.7699 11.2021 36.7021 11.6592C36.6344 12.1162 36.6006 12.5986 36.6006 13.1064V13.5889C36.6006 14.0967 36.6683 14.5579 36.8037 14.9727C36.9476 15.3874 37.1507 15.7428 37.4131 16.0391C37.6839 16.3268 38.0055 16.5511 38.3779 16.7119C38.7588 16.8727 39.1904 16.9531 39.6729 16.9531C40.2568 16.9531 40.8324 16.8431 41.3994 16.623C41.9665 16.403 42.4531 16.0391 42.8594 15.5312L44.8018 17.8418C44.5225 18.2396 44.1247 18.6247 43.6084 18.9971C43.1006 19.3695 42.4912 19.6742 41.7803 19.9111C41.0693 20.1396 40.2738 20.2539 39.3936 20.2539ZM50.54 6.26367L52.4697 10.0469L54.4629 6.26367H58.9062L55.3008 12.9541L59.0967 20H54.6152L52.4697 15.9375L50.3369 20H45.8555L49.6514 12.9541L46.0586 6.26367H50.54ZM67.5518 6.26367V9.23438H59.2744V6.26367H67.5518ZM61.0137 2.84863H65.292V15.5186C65.292 15.8825 65.3343 16.166 65.4189 16.3691C65.5036 16.5638 65.6475 16.7035 65.8506 16.7881C66.0622 16.8643 66.3415 16.9023 66.6885 16.9023C66.9339 16.9023 67.137 16.8981 67.2979 16.8896C67.4587 16.8727 67.611 16.8516 67.7549 16.8262V19.8857C67.391 20.0042 67.0101 20.0931 66.6123 20.1523C66.2145 20.2201 65.7913 20.2539 65.3428 20.2539C64.4287 20.2539 63.6458 20.11 62.9941 19.8223C62.3509 19.5345 61.86 19.0817 61.5215 18.4639C61.1829 17.846 61.0137 17.042 61.0137 16.0518V2.84863ZM137.528 1.51562L131.206 21.5869H128.159L134.481 1.51562H137.528Z" fill="#6610F2" fill-opacity="0.5"/>
<path d="M79.9678 13.7412H84.4111C84.3519 15.0277 84.0049 16.1618 83.3701 17.1436C82.7354 18.1253 81.8551 18.8913 80.7295 19.4414C79.6123 19.9831 78.292 20.2539 76.7686 20.2539C75.5329 20.2539 74.4284 20.0465 73.4551 19.6318C72.4902 19.2171 71.6693 18.6204 70.9922 17.8418C70.3236 17.0632 69.8115 16.1195 69.4561 15.0107C69.109 13.902 68.9355 12.6536 68.9355 11.2656V10.2627C68.9355 8.87467 69.1175 7.6263 69.4814 6.51758C69.8538 5.40039 70.3786 4.45247 71.0557 3.67383C71.7412 2.88672 72.5622 2.28581 73.5186 1.87109C74.4749 1.45638 75.5371 1.24902 76.7051 1.24902C78.3132 1.24902 79.6715 1.53678 80.7803 2.1123C81.889 2.68783 82.748 3.47917 83.3574 4.48633C83.9668 5.48503 84.3265 6.62337 84.4365 7.90137H79.9932C79.9762 7.20736 79.8577 6.6276 79.6377 6.16211C79.4176 5.68815 79.0706 5.33268 78.5967 5.0957C78.1227 4.85872 77.4922 4.74023 76.7051 4.74023C76.1549 4.74023 75.6768 4.8418 75.2705 5.04492C74.8643 5.24805 74.5257 5.56966 74.2549 6.00977C73.984 6.44987 73.7809 7.02116 73.6455 7.72363C73.5186 8.41764 73.4551 9.25553 73.4551 10.2373V11.2656C73.4551 12.2474 73.5143 13.0853 73.6328 13.7793C73.7513 14.4733 73.9417 15.0404 74.2041 15.4805C74.4665 15.9206 74.805 16.2464 75.2197 16.458C75.6429 16.6611 76.1592 16.7627 76.7686 16.7627C77.4456 16.7627 78.0169 16.6569 78.4824 16.4453C78.9479 16.2253 79.3076 15.8952 79.5615 15.4551C79.8154 15.0065 79.9508 14.4352 79.9678 13.7412ZM85.7822 13.2715V13.0049C85.7822 11.9977 85.9261 11.071 86.2139 10.2246C86.5016 9.36979 86.9248 8.62923 87.4834 8.00293C88.042 7.37663 88.7318 6.88997 89.5527 6.54297C90.3737 6.1875 91.3216 6.00977 92.3965 6.00977C93.4798 6.00977 94.432 6.1875 95.2529 6.54297C96.0824 6.88997 96.7764 7.37663 97.335 8.00293C97.8936 8.62923 98.3167 9.36979 98.6045 10.2246C98.8923 11.071 99.0361 11.9977 99.0361 13.0049V13.2715C99.0361 14.2702 98.8923 15.1969 98.6045 16.0518C98.3167 16.8981 97.8936 17.6387 97.335 18.2734C96.7764 18.8997 96.0866 19.3864 95.2656 19.7334C94.4447 20.0804 93.4967 20.2539 92.4219 20.2539C91.347 20.2539 90.3949 20.0804 89.5654 19.7334C88.736 19.3864 88.042 18.8997 87.4834 18.2734C86.9248 17.6387 86.5016 16.8981 86.2139 16.0518C85.9261 15.1969 85.7822 14.2702 85.7822 13.2715ZM90.0605 13.0049V13.2715C90.0605 13.7878 90.0986 14.2702 90.1748 14.7188C90.251 15.1673 90.3779 15.5609 90.5557 15.8994C90.7334 16.2295 90.9746 16.4876 91.2793 16.6738C91.584 16.86 91.9648 16.9531 92.4219 16.9531C92.8704 16.9531 93.2428 16.86 93.5391 16.6738C93.8438 16.4876 94.085 16.2295 94.2627 15.8994C94.4404 15.5609 94.5674 15.1673 94.6436 14.7188C94.7197 14.2702 94.7578 13.7878 94.7578 13.2715V13.0049C94.7578 12.5055 94.7197 12.0358 94.6436 11.5957C94.5674 11.1471 94.4404 10.7536 94.2627 10.415C94.085 10.068 93.8438 9.7972 93.5391 9.60254C93.2344 9.40788 92.8535 9.31055 92.3965 9.31055C91.9479 9.31055 91.5713 9.40788 91.2666 9.60254C90.9704 9.7972 90.7334 10.068 90.5557 10.415C90.3779 10.7536 90.251 11.1471 90.1748 11.5957C90.0986 12.0358 90.0605 12.5055 90.0605 13.0049ZM108.837 16.8516V0.5H113.141V20H109.281L108.837 16.8516ZM100.407 13.2969V13.0303C100.407 11.9893 100.521 11.0413 100.75 10.1865C100.979 9.32324 101.317 8.58268 101.766 7.96484C102.214 7.33854 102.773 6.85612 103.441 6.51758C104.11 6.17904 104.88 6.00977 105.752 6.00977C106.531 6.00977 107.212 6.19173 107.796 6.55566C108.38 6.91113 108.879 7.41048 109.294 8.05371C109.709 8.69694 110.047 9.4502 110.31 10.3135C110.572 11.1683 110.771 12.0908 110.906 13.0811V13.3984C110.771 14.3294 110.572 15.2096 110.31 16.0391C110.047 16.86 109.709 17.5879 109.294 18.2227C108.879 18.8574 108.376 19.3568 107.783 19.7207C107.199 20.0762 106.514 20.2539 105.727 20.2539C104.855 20.2539 104.085 20.0804 103.416 19.7334C102.756 19.3864 102.201 18.8997 101.753 18.2734C101.313 17.6471 100.979 16.9108 100.75 16.0645C100.521 15.2181 100.407 14.2956 100.407 13.2969ZM104.686 13.0303V13.2969C104.686 13.8132 104.719 14.2913 104.787 14.7314C104.855 15.1715 104.969 15.5609 105.13 15.8994C105.299 16.2295 105.519 16.4876 105.79 16.6738C106.069 16.86 106.412 16.9531 106.818 16.9531C107.368 16.9531 107.821 16.8219 108.177 16.5596C108.541 16.2972 108.807 15.9248 108.977 15.4424C109.154 14.96 109.23 14.3929 109.205 13.7412V12.7383C109.222 12.1797 109.184 11.6888 109.091 11.2656C108.998 10.834 108.85 10.4743 108.646 10.1865C108.452 9.89876 108.202 9.68294 107.897 9.53906C107.601 9.38672 107.25 9.31055 106.844 9.31055C106.446 9.31055 106.107 9.40365 105.828 9.58984C105.557 9.77604 105.337 10.0384 105.168 10.377C104.999 10.707 104.876 11.1006 104.8 11.5576C104.724 12.0062 104.686 12.4971 104.686 13.0303ZM122.218 20.2539C121.101 20.2539 120.102 20.0804 119.222 19.7334C118.341 19.3779 117.597 18.8913 116.987 18.2734C116.386 17.6556 115.925 16.9447 115.604 16.1406C115.29 15.3366 115.134 14.486 115.134 13.5889V13.1064C115.134 12.0993 115.273 11.1683 115.553 10.3135C115.832 9.4502 116.247 8.69694 116.797 8.05371C117.347 7.41048 118.037 6.91113 118.866 6.55566C119.696 6.19173 120.66 6.00977 121.761 6.00977C122.734 6.00977 123.606 6.16634 124.376 6.47949C125.146 6.79264 125.798 7.24121 126.331 7.8252C126.873 8.40918 127.283 9.11589 127.562 9.94531C127.85 10.7747 127.994 11.7057 127.994 12.7383V14.4775H116.771V11.7988H123.817V11.4688C123.826 11.0117 123.745 10.6224 123.576 10.3008C123.415 9.97917 123.178 9.73372 122.865 9.56445C122.552 9.39518 122.171 9.31055 121.723 9.31055C121.257 9.31055 120.872 9.41211 120.567 9.61523C120.271 9.81836 120.038 10.0977 119.869 10.4531C119.708 10.8001 119.594 11.2021 119.526 11.6592C119.459 12.1162 119.425 12.5986 119.425 13.1064V13.5889C119.425 14.0967 119.493 14.5579 119.628 14.9727C119.772 15.3874 119.975 15.7428 120.237 16.0391C120.508 16.3268 120.83 16.5511 121.202 16.7119C121.583 16.8727 122.015 16.9531 122.497 16.9531C123.081 16.9531 123.657 16.8431 124.224 16.623C124.791 16.403 125.277 16.0391 125.684 15.5312L127.626 17.8418C127.347 18.2396 126.949 18.6247 126.433 18.9971C125.925 19.3695 125.315 19.6742 124.604 19.9111C123.894 20.1396 123.098 20.2539 122.218 20.2539Z" fill="#131313" fill-opacity="0.5"/>
</svg>
