<svg width="48" height="48" viewBox="0 0 48 48" fill="none" xmlns="http://www.w3.org/2000/svg">
<g clip-path="url(#clip0_915_1024)">
<path fill-rule="evenodd" clip-rule="evenodd" d="M24 3C20.0218 3 16.2064 4.58035 13.3934 7.3934C10.5804 10.2064 9 14.0218 9 18V31.5H6V18C6 15.6362 6.46558 13.2956 7.37017 11.1117C8.27475 8.92784 9.60062 6.94353 11.2721 5.27208C12.9435 3.60062 14.9278 2.27475 17.1117 1.37017C19.2956 0.465584 21.6362 0 24 0C26.3638 0 28.7044 0.465584 30.8883 1.37017C33.0722 2.27475 35.0565 3.60062 36.7279 5.27208C38.3994 6.94353 39.7252 8.92784 40.6298 11.1117C41.5344 13.2956 42 15.6362 42 18V31.5H39V18C39 16.0302 38.612 14.0796 37.8582 12.2597C37.1044 10.4399 35.9995 8.78628 34.6066 7.3934C33.2137 6.00052 31.5601 4.89563 29.7403 4.14181C27.9204 3.38799 25.9698 3 24 3V3Z" fill="#6610F2"/>
<path d="M33 24C33 23.2044 33.3161 22.4413 33.8787 21.8787C34.4413 21.3161 35.2044 21 36 21H42V33C42 33.7956 41.6839 34.5587 41.1213 35.1213C40.5587 35.6839 39.7956 36 39 36H36C35.2044 36 34.4413 35.6839 33.8787 35.1213C33.3161 34.5587 33 33.7956 33 33V24ZM15 24C15 23.2044 14.6839 22.4413 14.1213 21.8787C13.5587 21.3161 12.7956 21 12 21H6V33C6 33.7956 6.31607 34.5587 6.87868 35.1213C7.44129 35.6839 8.20435 36 9 36H12C12.7956 36 13.5587 35.6839 14.1213 35.1213C14.6839 34.5587 15 33.7956 15 33V24Z" fill="#6610F2"/>
<path fill-rule="evenodd" clip-rule="evenodd" d="M40.5 25.5C40.8978 25.5 41.2794 25.658 41.5607 25.9393C41.842 26.2206 42 26.6022 42 27V36C42 37.9891 41.2098 39.8968 39.8033 41.3033C38.3968 42.7098 36.4891 43.5 34.5 43.5H24C23.6022 43.5 23.2206 43.342 22.9393 43.0607C22.658 42.7794 22.5 42.3978 22.5 42C22.5 41.6022 22.658 41.2206 22.9393 40.9393C23.2206 40.658 23.6022 40.5 24 40.5H34.5C35.6935 40.5 36.8381 40.0259 37.682 39.182C38.5259 38.3381 39 37.1935 39 36V27C39 26.6022 39.158 26.2206 39.4393 25.9393C39.7206 25.658 40.1022 25.5 40.5 25.5Z" fill="#6610F2"/>
<path d="M19.5 42C19.5 41.2044 19.8161 40.4413 20.3787 39.8787C20.9413 39.3161 21.7044 39 22.5 39H25.5C26.2956 39 27.0587 39.3161 27.6213 39.8787C28.1839 40.4413 28.5 41.2044 28.5 42C28.5 42.7956 28.1839 43.5587 27.6213 44.1213C27.0587 44.6839 26.2956 45 25.5 45H22.5C21.7044 45 20.9413 44.6839 20.3787 44.1213C19.8161 43.5587 19.5 42.7956 19.5 42Z" fill="#6610F2"/>
</g>
<defs>
<clipPath id="clip0_915_1024">
<rect width="48" height="48" fill="white"/>
</clipPath>
</defs>
</svg>
