<svg width="48" height="48" viewBox="0 0 48 48" fill="none" xmlns="http://www.w3.org/2000/svg">
<g clip-path="url(#clip0_915_1074)">
<path fill-rule="evenodd" clip-rule="evenodd" d="M33.7536 0.20386C34.0472 0.374076 34.2744 0.63883 34.3981 0.954873C34.5218 1.27092 34.5347 1.61956 34.4346 1.94386L29.0316 19.4999H39.0006C39.2936 19.4997 39.5802 19.5854 39.825 19.7463C40.0698 19.9072 40.2622 20.1363 40.3783 20.4052C40.4944 20.6742 40.5293 20.9713 40.4785 21.2598C40.4277 21.5483 40.2936 21.8157 40.0926 22.0289L16.0926 47.5289C15.8604 47.7758 15.5514 47.9368 15.2159 47.9856C14.8805 48.0344 14.5384 47.9682 14.2454 47.7977C13.9524 47.6272 13.7258 47.3625 13.6026 47.0467C13.4793 46.731 13.4666 46.3828 13.5666 46.0589L18.9696 28.4999H9.0006C8.70763 28.5 8.42105 28.4143 8.17622 28.2534C7.93139 28.0925 7.73903 27.8634 7.62289 27.5945C7.50676 27.3255 7.47193 27.0284 7.5227 26.7399C7.57347 26.4514 7.70762 26.184 7.9086 25.9709L31.9086 0.47086C32.1405 0.224258 32.4491 0.0633662 32.784 0.014346C33.119 -0.0346741 33.4607 0.03106 33.7536 0.20086V0.20386Z" fill="#6610F2"/>
</g>
<defs>
<clipPath id="clip0_915_1074">
<rect width="48" height="48" fill="white"/>
</clipPath>
</defs>
</svg>
