<svg width="48" height="48" viewBox="0 0 48 48" fill="none" xmlns="http://www.w3.org/2000/svg">
<g clip-path="url(#clip0_915_1059)">
<path fill-rule="evenodd" clip-rule="evenodd" d="M19.4987 0C19.1008 0 18.7193 0.158035 18.438 0.43934C18.1567 0.720644 17.9987 1.10218 17.9987 1.5C17.9987 1.89782 18.1567 2.27936 18.438 2.56066C18.7193 2.84196 19.1008 3 19.4987 3H20.9987V6.21C15.744 6.96948 10.972 9.69082 7.64267 13.8265C4.31336 17.9622 2.67385 23.2053 3.05401 28.5009C3.43417 33.7965 5.80578 38.7517 9.69169 42.3694C13.5776 45.9871 18.6894 47.9989 23.9987 48C29.3144 48.0096 34.436 46.0028 38.3304 42.3846C42.2247 38.7663 44.602 33.8058 44.9826 28.5037C45.3632 23.2016 43.7189 17.9524 40.3813 13.815C37.0437 9.67754 32.2613 6.95982 26.9987 6.21V3H28.4987C28.8965 3 29.278 2.84196 29.5593 2.56066C29.8406 2.27936 29.9987 1.89782 29.9987 1.5C29.9987 1.10218 29.8406 0.720644 29.5593 0.43934C29.278 0.158035 28.8965 0 28.4987 0L19.4987 0ZM25.4987 16.8C25.4987 16.4022 25.3406 16.0206 25.0593 15.7393C24.778 15.458 24.3965 15.3 23.9987 15.3C23.6008 15.3 23.2193 15.458 22.938 15.7393C22.6567 16.0206 22.4987 16.4022 22.4987 16.8V25.5H13.4987C13.1008 25.5 12.7193 25.658 12.438 25.9393C12.1567 26.2206 11.9987 26.6022 11.9987 27C11.9987 27.3978 12.1567 27.7794 12.438 28.0607C12.7193 28.342 13.1008 28.5 13.4987 28.5H23.9987C24.3965 28.5 24.778 28.342 25.0593 28.0607C25.3406 27.7794 25.4987 27.3978 25.4987 27V16.8Z" fill="#6610F2"/>
</g>
<defs>
<clipPath id="clip0_915_1059">
<rect width="48" height="48" fill="white"/>
</clipPath>
</defs>
</svg>
