<svg width="48" height="48" viewBox="0 0 48 48" fill="none" xmlns="http://www.w3.org/2000/svg">
<g clip-path="url(#clip0_915_1050)">
<path fill-rule="evenodd" clip-rule="evenodd" d="M42 6H6C5.20435 6 4.44129 6.31607 3.87868 6.87868C3.31607 7.44129 3 8.20435 3 9V39C3 39.7956 3.31607 40.5587 3.87868 41.1213C4.44129 41.6839 5.20435 42 6 42H42C42.7956 42 43.5587 41.6839 44.1213 41.1213C44.6839 40.5587 45 39.7956 45 39V9C45 8.20435 44.6839 7.44129 44.1213 6.87868C43.5587 6.31607 42.7956 6 42 6V6ZM6 3C4.4087 3 2.88258 3.63214 1.75736 4.75736C0.632141 5.88258 0 7.4087 0 9L0 39C0 40.5913 0.632141 42.1174 1.75736 43.2426C2.88258 44.3679 4.4087 45 6 45H42C43.5913 45 45.1174 44.3679 46.2426 43.2426C47.3679 42.1174 48 40.5913 48 39V9C48 7.4087 47.3679 5.88258 46.2426 4.75736C45.1174 3.63214 43.5913 3 42 3H6Z" fill="#6610F2"/>
<path fill-rule="evenodd" clip-rule="evenodd" d="M45 18H3V15H45V18Z" fill="#6610F2"/>
<path d="M9 10.5C9 10.8978 8.84196 11.2794 8.56066 11.5607C8.27936 11.842 7.89782 12 7.5 12C7.10218 12 6.72064 11.842 6.43934 11.5607C6.15804 11.2794 6 10.8978 6 10.5C6 10.1022 6.15804 9.72064 6.43934 9.43934C6.72064 9.15804 7.10218 9 7.5 9C7.89782 9 8.27936 9.15804 8.56066 9.43934C8.84196 9.72064 9 10.1022 9 10.5V10.5ZM13.5 10.5C13.5 10.8978 13.342 11.2794 13.0607 11.5607C12.7794 11.842 12.3978 12 12 12C11.6022 12 11.2206 11.842 10.9393 11.5607C10.658 11.2794 10.5 10.8978 10.5 10.5C10.5 10.1022 10.658 9.72064 10.9393 9.43934C11.2206 9.15804 11.6022 9 12 9C12.3978 9 12.7794 9.15804 13.0607 9.43934C13.342 9.72064 13.5 10.1022 13.5 10.5ZM18 10.5C18 10.8978 17.842 11.2794 17.5607 11.5607C17.2794 11.842 16.8978 12 16.5 12C16.1022 12 15.7206 11.842 15.4393 11.5607C15.158 11.2794 15 10.8978 15 10.5C15 10.1022 15.158 9.72064 15.4393 9.43934C15.7206 9.15804 16.1022 9 16.5 9C16.8978 9 17.2794 9.15804 17.5607 9.43934C17.842 9.72064 18 10.1022 18 10.5Z" fill="#6610F2"/>
</g>
<defs>
<clipPath id="clip0_915_1050">
<rect width="48" height="48" fill="white"/>
</clipPath>
</defs>
</svg>
